<svg xmlns="http://www.w3.org/2000/svg" viewBox="174.3691 59.8161 442.509 492.367" role="img" aria-labelledby="title">
  <title>Timpanogos Timberwolves wolf logo</title>
  <path fill="#4ff701" d="M 604.7811 312.0921 C 606.8271 310.8911 608.2551 309.4161 609.1821 308.2161 C 612.5031 303.9121 613.3401 298.4981 611.6701 292.1241 C 605.6231 269.0541 596.2411 250.8521 583.0271 236.5841 C 596.0091 217.7191 604.7671 197.2191 609.7711 174.0091 C 613.4011 157.1931 614.5541 140.5401 613.1991 124.5121 C 611.8151 108.1571 607.7761 91.9341 601.1921 76.2941 C 598.4531 69.7851 593.0451 62.0261 582.8341 62.0261 C 578.2351 62.0261 573.7561 63.7191 569.1431 67.2021 C 544.2531 85.9691 517.5461 102.5331 487.6071 117.7661 L 483.0201 103.5571 L 467.4121 123.0401 C 462.3721 129.3281 448.7271 138.2671 443.6431 138.6831 C 430.8781 134.6531 417.4511 130.1131 405.4731 123.1081 C 405.4011 123.0671 405.3301 123.0231 405.2621 122.9791 L 405.1971 122.9391 C 403.7211 122.0401 400.2641 119.9341 395.4871 119.9341 C 392.1081 119.9341 388.8701 120.9451 385.8631 122.9391 C 375.5651 129.7631 363.4351 133.6481 350.5851 137.7631 L 348.2491 138.5131 C 343.1111 138.4671 331.8091 130.9461 325.7981 123.5641 L 309.2551 103.2441 L 305.1881 118.2621 C 277.8041 104.4691 249.8231 87.0621 219.7821 65.1411 C 217.2471 63.2841 213.2941 60.8161 208.2571 60.8161 C 198.5061 60.8161 194.4711 68.9021 193.1271 71.5941 L 193.0971 71.6551 C 180.0051 98.4261 175.3691 129.3131 179.6911 160.9771 C 183.3991 188.1701 193.4671 214.2361 208.8531 236.5381 C 194.8631 251.4881 187.4001 269.3181 181.9371 284.9171 C 180.6221 288.6591 177.1281 298.5971 182.9511 306.8011 C 184.1971 308.5621 185.7671 310.0651 187.5761 311.2441 C 182.5281 323.5941 176.7691 341.9841 178.2241 366.1421 C 177.7681 378.0541 177.4371 387.4671 183.7031 393.9791 C 187.1901 397.6051 191.9591 399.4441 197.8761 399.4441 C 199.6441 399.4441 201.3721 399.3071 203.3721 399.1491 L 203.5531 399.1351 C 205.0821 399.0111 206.7511 398.8771 208.6151 398.7951 C 208.8691 399.7471 209.2121 400.6731 209.6441 401.5671 C 214.7221 412.1061 226.8351 412.2831 242.1801 412.5061 C 253.6081 412.6691 270.8791 412.9161 277.8581 418.1301 L 278.2441 418.4141 L 278.8941 418.8281 C 312.5921 439.3511 320.8231 448.6641 322.3451 450.6591 C 324.3081 463.9061 325.6321 477.6371 326.9151 490.9381 C 327.3241 495.2111 327.7481 499.6301 328.1921 503.9791 C 329.7751 519.6041 338.0851 532.3381 351.5541 539.8141 C 364.2151 547.0391 381.0251 551.1831 397.6731 551.1831 C 416.3381 551.1831 432.4591 546.3381 444.2951 537.1701 C 456.3171 527.8571 463.1851 514.7081 464.1571 499.1101 L 464.1671 498.9191 C 464.6891 487.4291 465.4111 475.1421 467.1461 463.1431 C 467.4881 460.8061 467.5541 458.5971 467.6121 456.6471 L 467.6181 456.4701 C 467.6651 454.6841 467.7331 453.4401 467.8211 452.7561 C 493.2711 425.3041 523.4541 410.7971 555.1401 410.7971 C 558.4391 410.7971 561.8181 410.9571 565.1831 411.2711 C 566.2531 411.3891 567.2311 411.4461 568.1721 411.4461 C 576.4421 411.4461 580.4311 406.8491 582.0761 404.1041 C 583.0071 402.5461 583.6271 400.9021 583.9331 399.1921 C 585.7361 399.1841 587.5241 399.1551 589.2621 399.1261 L 589.7271 399.1191 C 591.6961 399.0851 593.6211 399.0541 595.5251 399.0491 C 595.5921 399.0491 595.6571 399.0481 595.7201 399.0511 L 596.0391 399.0581 C 596.2381 399.0631 596.4341 399.0671 596.6291 399.0671 C 605.2171 399.0671 611.6691 393.2601 612.6841 384.6171 C 615.8781 357.3731 613.2931 333.6071 604.7811 312.0921"/>
  <path fill="#050e38" d="M 424.6525 426.232 L 425.1565 429.217 C 425.0195 428.089 424.8545 427.066 424.6525 426.232"/>
  <path fill="#050e38" d="M 366.06 429.2934 C 366.293 428.3314 366.564 427.3804 366.885 426.4514 C 366.507 427.2584 366.246 428.2304 366.06 429.2934"/>
  <path fill="#050e38" d="M 560.5578 162.0647 C 560.2738 161.8267 559.8738 161.6337 559.3358 161.4827 C 559.7528 161.6487 560.1618 161.8377 560.5578 162.0647"/>
  <path fill="#050e38" d="M 559.4857 355.4386 C 542.7697 358.6536 525.8507 363.9446 511.4737 372.9736 C 516.6467 375.3486 522.7577 375.3126 526.5197 380.3246 C 499.0287 382.8096 474.1047 391.3846 460.3357 416.9926 C 460.3357 416.9926 460.3347 416.9936 460.3337 416.9936 C 457.9397 421.2196 455.7657 425.5776 452.5987 429.2946 C 452.6667 427.3876 453.1317 425.6506 453.8207 424.0026 C 453.7087 424.0336 453.6077 424.0736 453.4887 424.0996 C 460.4407 393.4576 462.7697 371.4736 451.9727 341.3966 C 459.5247 345.1366 465.3607 352.0556 473.0957 355.3196 C 466.7597 343.7906 456.0677 334.6946 449.5147 323.2496 C 464.8697 324.2416 478.2607 323.0456 488.9167 310.2086 C 491.7267 316.6526 486.6267 322.9036 485.0657 329.0386 C 511.3427 320.0496 521.4727 299.4026 517.0507 268.0336 C 517.1547 268.0046 517.2497 267.9896 517.3457 267.9716 C 517.0597 267.4236 516.7717 266.8756 516.4737 266.3286 C 517.7067 264.7886 518.3867 266.4076 519.2687 266.9576 C 535.4637 276.8416 542.0627 299.1416 538.0367 318.1246 C 543.3567 313.6396 545.2207 306.3426 549.9897 301.2816 C 558.3767 316.1866 561.6417 333.2256 563.5477 350.0676 C 563.8797 353.4096 563.0317 354.8696 559.4857 355.4386 M 462.8647 306.3626 C 454.7837 310.8756 434.9117 299.2716 439.4427 296.8306 C 442.7287 296.4076 446.2137 294.0646 449.4947 297.0886 C 454.5517 303.9766 468.9087 298.2086 464.1657 293.4246 C 464.1667 293.4246 464.1667 293.4246 464.1677 293.4246 C 464.1657 293.4246 464.1637 293.4246 464.1617 293.4246 C 461.0737 292.4846 460.5817 290.0266 461.2797 287.4866 C 462.5587 282.8356 466.5687 283.9526 469.9347 283.8606 C 471.9797 281.9546 474.7587 281.3066 476.9257 282.3996 C 479.2497 283.5716 476.7687 285.9596 476.8507 287.8726 C 477.2717 297.7746 471.8427 303.6416 462.8647 306.3626 M 443.2567 388.6346 L 443.2567 388.6346 C 442.1337 395.0986 414.0797 419.1336 412.0547 407.1736 C 410.4617 397.1006 420.1557 401.3186 423.8437 396.6416 C 438.1517 374.8406 387.5847 379.2786 376.6707 381.3266 C 363.8667 383.9906 363.5577 384.3756 367.9547 396.8926 C 372.0797 400.9996 381.5687 397.5396 379.7297 407.3586 C 378.4797 412.4406 375.1347 410.4536 372.1697 409.2256 C 362.0447 405.0326 354.0307 398.3796 348.5157 388.8326 C 344.4097 378.2266 349.2307 368.4816 352.0017 358.7876 C 356.3857 343.4486 362.6217 340.8966 377.1707 347.0186 L 377.1707 347.0196 C 379.6347 341.3456 373.7987 339.6016 371.9327 335.9806 C 370.7707 333.7256 366.3087 333.2896 367.6407 329.9296 C 368.9657 326.5866 372.2667 325.7926 375.7997 326.5126 C 384.0517 326.3966 368.0507 321.2626 379.7757 315.9186 C 385.2677 312.4726 388.3057 307.1716 386.2777 300.2006 C 386.2517 300.1676 386.2367 300.1336 386.2137 300.1006 C 384.6257 302.4086 382.6097 304.3016 379.7567 305.3866 C 384.5297 286.8356 387.0557 268.3996 378.2217 250.5486 C 377.5397 248.8076 376.8237 247.0746 376.2357 245.3116 C 376.4037 248.5376 376.7117 251.4426 376.2737 251.4906 C 366.1457 301.5946 340.3467 242.5956 317.9117 236.8676 C 323.2367 234.2626 328.2627 234.3736 333.0947 233.0696 C 319.1737 227.4696 305.8167 228.4726 290.8837 232.0836 C 297.8157 218.4946 307.2477 208.3126 317.7717 198.1206 C 315.5877 198.3586 313.4387 198.6976 311.3157 199.1156 C 295.2197 207.5426 279.3627 216.3386 266.0867 229.0656 C 264.2487 230.8276 262.8907 230.0196 261.2717 228.8036 C 220.2227 197.9846 201.9097 157.9006 210.7287 106.7376 C 210.6737 105.9576 210.8237 105.1496 211.4607 104.1426 C 247.9757 131.3046 286.2497 155.3366 328.5847 172.5516 C 329.2447 169.6756 326.4507 168.1616 326.7977 165.1126 C 338.7857 171.9256 347.2497 181.8316 357.0607 191.1566 C 355.7047 186.7876 354.3477 182.4186 352.8367 177.5526 C 364.5627 175.1856 376.0967 174.1646 387.3147 169.6746 C 389.9037 185.3256 392.3987 200.4066 394.8937 215.4876 C 395.3517 215.4886 395.8087 215.4886 396.2657 215.4886 C 398.7647 200.5356 401.2637 185.5826 403.8367 170.1856 C 415.2797 173.4856 426.1087 175.0416 437.8547 177.5346 C 437.6227 182.3556 435.4917 186.5526 434.5257 191.2586 C 443.5237 181.5616 452.8037 172.1836 464.4197 164.9166 C 464.6587 167.9326 462.2837 169.4736 462.0367 172.0656 C 505.2837 157.2676 543.4107 129.2576 581.1497 103.7346 C 589.9397 155.0156 571.7437 197.8816 530.7497 228.6306 C 529.1467 229.8336 527.6897 231.0526 525.5277 228.9556 C 511.6987 215.5426 494.9607 206.5826 478.0327 197.9326 C 476.5627 197.4846 475.0937 197.0486 473.6287 196.6326 C 483.8607 208.2986 492.9477 217.9426 500.3987 232.0756 C 485.4957 228.1006 471.7857 228.4496 458.1697 232.9296 C 462.7287 234.3116 467.4887 234.5036 471.9797 235.9786 C 471.7477 236.6136 471.7237 237.0606 471.5297 237.1536 C 463.4777 241.0186 457.2517 247.1496 451.1197 253.4306 C 446.4227 258.2416 441.4397 262.7786 436.8477 267.6856 C 424.5777 279.8146 415.8307 262.2686 415.1717 251.6926 C 413.2317 250.8496 413.5237 253.1476 412.3997 253.2866 C 406.2017 268.3286 406.3857 283.5986 410.7757 299.1116 C 411.3507 301.1436 413.5787 303.0236 412.0067 305.5096 C 410.1827 304.1516 408.3587 302.7936 406.5347 301.4356 L 406.5347 301.4356 C 403.0817 304.3856 406.1117 313.0096 412.5157 316.2716 C 416.6347 318.3686 418.5897 319.6036 414.6627 323.7866 C 412.4197 326.1756 414.2847 326.7706 416.7137 326.3936 C 419.7907 325.9156 422.6197 326.6636 424.0237 329.5876 C 425.6387 332.9486 421.7557 333.4576 420.4727 335.3236 C 417.9907 338.9286 413.0547 341.2946 414.7737 346.9536 C 439.4067 333.6386 441.3617 364.7946 444.8867 381.2336 C 445.3967 383.7796 446.0217 386.6666 443.2567 388.6346 M 427.9707 445.8596 L 427.9987 446.0246 C 427.4197 446.3976 426.9757 446.6856 426.6267 446.9126 C 426.3047 447.1386 425.9767 447.3566 425.6357 447.5596 C 424.2957 443.3456 424.6947 438.5576 422.6517 433.7946 C 421.0937 435.7246 419.5147 437.5356 417.1717 436.3086 C 413.7847 436.0506 409.5867 434.5036 404.7307 439.2646 C 398.8597 437.2756 392.9907 435.9736 387.5557 439.4036 C 383.0107 435.8466 379.6027 435.8106 376.8827 436.1646 C 375.3517 437.0126 373.6857 436.5546 372.3157 436.5726 C 371.8547 436.4806 371.5067 436.2746 371.2087 436.0196 C 370.6307 435.6476 370.0817 435.0596 369.5497 434.1716 C 369.4397 434.0786 369.3257 433.9886 369.1967 433.9136 C 366.9527 438.3716 367.6317 443.0576 366.3437 447.1516 L 366.1347 447.1516 C 356.2617 440.4946 355.4287 428.5786 356.7187 417.2856 C 382.7277 428.1396 408.6757 428.3436 434.7007 417.3146 C 436.9917 426.2906 435.5157 439.3056 427.9707 445.8596 M 407.6827 494.0896 L 407.6827 494.0896 C 412.3447 489.9806 417.0057 485.8726 421.6677 481.7636 C 421.8757 478.7186 424.7687 478.0176 425.5637 481.3996 C 433.3617 507.9306 388.0147 506.7996 372.8397 499.3986 C 361.7067 495.2796 364.9667 474.6256 369.0437 480.0136 C 369.2057 480.2746 369.3577 480.5416 369.5047 480.8096 C 372.9317 486.4666 379.7297 488.7346 383.3277 494.2196 C 383.3017 494.2496 383.2747 494.2816 383.2487 494.3126 C 390.9677 495.1226 401.7387 493.3406 407.6827 494.0896 M 416.8497 520.7956 C 415.5257 520.9316 415.5397 519.3706 414.0327 518.8776 C 402.6867 527.9646 390.8017 528.3636 379.4727 519.0856 C 377.5967 518.8646 377.9267 520.7716 376.0837 520.7746 C 369.3597 518.6716 364.8677 513.1996 360.7397 507.1286 C 362.3197 506.0396 363.5117 506.7476 364.8987 507.4726 C 386.1907 518.3086 411.1567 517.8806 431.5167 505.4806 C 430.1747 512.0676 425.0257 517.2416 416.8497 520.7956 M 340.8997 298.5336 C 344.4457 294.3026 348.6007 296.2036 353.1807 297.1596 C 347.7587 306.8406 334.1977 309.7286 324.4717 304.6936 C 315.5627 300.4036 315.2477 291.7766 313.9477 283.7146 C 313.5697 281.3726 317.6997 281.4246 322.2527 283.9476 C 322.2527 283.9486 322.2527 283.9496 322.2527 283.9506 C 322.2527 283.9496 322.2537 283.9486 322.2537 283.9476 C 329.2667 282.1346 334.4837 288.9396 327.7787 293.5536 C 322.3267 297.5066 335.8157 303.1376 340.8997 298.5336 M 318.8247 355.6716 C 326.3847 351.8726 332.2837 345.1206 339.8807 341.4506 C 329.1967 368.7996 331.7577 395.1966 337.6677 423.0426 C 337.6667 423.0396 337.6647 423.0366 337.6637 423.0336 C 337.6647 423.0366 337.6667 423.0406 337.6687 423.0436 L 331.7007 415.9766 C 311.3407 389.1186 293.3257 383.3186 265.2687 380.7036 C 268.5527 375.7946 275.1557 374.9596 280.3417 372.9626 C 265.4797 364.1156 248.8627 358.3946 231.8427 355.3426 C 228.7877 354.8466 227.9517 353.5276 228.2227 350.6176 C 230.3027 333.7076 233.0147 315.8436 242.1317 301.2556 C 246.7177 306.3846 248.1577 313.5726 253.7027 318.0406 C 249.5897 298.4846 256.1657 279.3736 271.8047 266.9486 C 273.1387 265.8016 274.6647 264.3286 274.6287 267.8096 C 269.5607 294.2146 279.2477 319.8916 306.5367 329.2966 C 304.5427 323.1396 301.1677 317.1326 302.9167 310.5226 C 313.4967 322.7266 327.5807 324.8206 342.6457 322.8706 C 336.3867 334.7676 324.4127 343.5316 318.8247 355.6716 M 590.9927 300.1306 L 591.0167 300.1306 C 592.3237 300.1316 594.5057 300.8696 596.2677 300.8696 C 598.3207 300.8696 599.8027 299.8666 598.6657 295.5286 C 593.1717 274.5566 584.2007 255.3746 567.8527 240.4416 C 565.9907 238.7406 565.4747 237.7836 567.1657 235.5666 C 581.8297 216.3356 591.4947 194.9976 596.6347 171.1756 C 603.3037 140.2616 601.0347 110.5656 588.8047 81.5066 C 587.2307 77.7666 585.4757 75.4666 582.8337 75.4666 C 581.3087 75.4666 579.4867 76.2336 577.2347 77.9326 C 547.8567 100.0876 516.3647 118.8196 483.3007 134.9266 C 482.0467 135.5376 480.3277 136.9826 479.2137 136.9826 C 478.2967 136.9826 477.7907 136.0006 478.2987 132.7606 C 478.3627 132.3526 478.0407 131.8846 477.8987 131.4446 C 471.8837 138.9496 454.3137 152.1396 443.3187 152.1396 C 442.3947 152.1396 441.5167 152.0456 440.6967 151.8486 C 426.2057 147.2876 411.8927 142.4336 398.7027 134.7196 C 397.6537 134.1066 396.6887 133.3776 395.4867 133.3776 C 394.8397 133.3776 394.1237 133.5886 393.2897 134.1416 C 380.4267 142.6666 365.7777 146.9826 351.2637 151.6636 C 350.3067 151.8606 349.3167 151.9546 348.2977 151.9546 C 336.8067 151.9546 321.8907 140.0506 315.3777 132.0526 C 314.3717 135.7656 313.5157 136.9986 312.3807 136.9986 C 310.9977 136.9986 309.2007 135.1646 306.2147 133.7556 C 272.9567 117.6816 241.6647 97.7496 211.8557 75.9936 C 210.2407 74.8116 209.1287 74.2596 208.2587 74.2596 C 206.9857 74.2596 206.2297 75.4406 205.1717 77.5626 C 180.3907 128.2256 190.9457 191.7866 224.8717 235.6836 C 226.3767 237.6386 226.1657 238.6546 224.3597 240.2256 C 209.2037 253.4126 201.0917 270.8866 194.6197 289.3646 C 192.3037 295.9746 191.9947 300.8566 198.7697 300.8566 C 199.8637 300.8566 201.1417 300.7296 202.6257 300.4616 C 203.5807 300.1526 204.3147 299.9986 204.8567 299.9996 C 211.5577 300.0016 188.8827 323.4766 191.6827 365.9776 C 191.0207 383.1326 191.6417 386.0026 197.8757 386.0026 C 201.0107 386.0026 205.5637 385.2766 212.0887 385.2766 C 214.4257 385.2766 217.0187 385.3696 219.8877 385.6226 C 223.7387 385.6456 225.8017 386.5726 223.2267 390.9906 C 211.3357 406.3686 264.9227 391.6896 285.8867 407.3486 C 295.9527 413.4786 335.1697 437.6876 335.5207 447.8896 C 338.2497 466.0266 339.7107 484.3576 341.5647 502.6226 C 342.7217 514.0276 348.4737 522.7526 358.1637 528.1096 C 368.8847 534.2456 383.3537 537.7406 397.6727 537.7406 C 423.5857 537.7406 448.9977 526.2866 450.7397 498.3116 C 451.3017 485.9156 452.0697 473.4746 453.8457 461.2126 C 454.6767 455.4786 453.1867 448.4776 457.5467 444.0706 C 483.6537 415.7186 516.9437 397.3566 555.1427 397.3576 C 558.9027 397.3586 562.7157 397.5366 566.5677 397.9006 C 567.1807 397.9716 567.7117 398.0056 568.1707 398.0056 C 576.9737 398.0056 558.8297 385.4696 573.5837 385.4706 C 573.9357 385.4706 574.3097 385.4786 574.7007 385.4926 C 577.4617 385.6926 580.2317 385.7526 583.0067 385.7526 C 587.1667 385.7526 591.3377 385.6166 595.4977 385.6066 L 595.5277 385.6066 C 595.9037 385.6066 596.2747 385.6236 596.6297 385.6236 C 597.9587 385.6236 599.0607 385.3786 599.3337 383.0506 C 602.4667 356.3236 599.9677 330.4356 587.3607 306.2796 C 584.4907 300.7806 585.3897 300.1706 590.9927 300.1306"/>
  <path fill="#aaa8ab" d="M 302.9163 310.5228 C 301.1673 317.1328 304.5423 323.1398 306.5363 329.2968 C 279.2483 319.8918 269.5603 294.2148 274.6283 267.8098 C 262.5513 289.5128 260.9703 311.9768 273.3143 334.4898 C 262.8003 336.1718 254.4313 329.2398 246.0993 324.1358 C 245.8363 356.9728 286.7423 359.6308 306.0483 374.9878 C 282.9153 376.9338 314.8393 376.8718 337.6633 423.0338 C 337.6653 423.0368 337.6663 423.0398 337.6683 423.0428 C 331.7583 395.1968 329.1973 368.7998 339.8813 341.4508 C 332.2843 345.1208 326.3843 351.8718 318.8243 355.6708 C 324.4123 343.5318 336.3863 334.7678 342.6453 322.8708 C 327.5803 324.8198 313.4963 322.7258 302.9163 310.5228"/>
  <path fill="#aaa8ab" d="M 494.3754 376.4149 C 491.4464 375.8059 488.5024 375.3239 485.5184 375.0819 C 504.1574 358.9209 546.8474 357.0539 545.3934 324.4009 C 537.2404 329.4709 528.3004 336.3429 518.1864 334.6879 C 531.5624 312.0929 528.8294 289.8839 517.3464 267.9709 C 517.2494 267.9899 517.1544 268.0049 517.0514 268.0329 C 521.4724 299.4019 511.3424 320.0499 485.0664 329.0389 C 486.6264 322.9029 491.7274 316.6529 488.9174 310.2089 C 478.2604 323.0459 464.8694 324.2419 449.5154 323.2499 C 456.0684 334.6949 466.7594 343.7909 473.0954 355.3199 C 465.3604 352.0559 459.5244 345.1369 451.9724 341.3959 C 462.7694 371.4739 460.4414 393.4569 453.4884 424.0999 C 453.6074 424.0729 453.7094 424.0339 453.8204 424.0019 C 454.9904 421.2029 456.8064 418.6629 458.4314 415.9959 C 466.8334 399.5269 479.8794 387.4579 494.3754 376.4149"/>
  <path fill="#fdfdfc" d="M 414.7735 346.9532 L 414.7735 346.9542 C 405.4455 351.7282 401.6005 360.8542 395.9755 368.9092 C 390.4815 360.7672 386.4785 351.7632 377.1715 347.0192 L 377.1715 347.0192 C 362.6225 340.8962 356.3855 343.4482 352.0015 358.7872 C 349.2305 368.4822 344.4095 378.2262 348.5165 388.8322 C 353.6575 391.7882 358.7565 394.8232 363.9705 397.6432 C 365.2105 398.3132 367.2975 400.5442 367.9545 396.8922 C 363.5575 384.3752 363.8665 383.9912 376.6705 381.3262 C 387.5855 379.2782 438.1515 374.8412 423.8445 396.6412 C 427.0185 401.6682 429.6105 396.5532 431.8595 395.6782 C 435.9525 394.0862 439.4885 391.0622 443.2565 388.6352 C 446.0225 386.6662 445.3965 383.7802 444.8865 381.2342 C 441.3615 364.7942 439.4065 333.6382 414.7735 346.9532"/>
  <path fill="#fbfbfb" d="M 306.0478 374.9879 C 286.7418 359.6309 245.8368 356.9729 246.0998 324.1359 C 254.4308 329.2399 262.8008 336.1719 273.3138 334.4899 C 260.9708 311.9769 262.5518 289.5129 274.6288 267.8099 C 274.6638 264.3279 273.1388 265.8019 271.8048 266.9479 C 256.1648 279.3739 249.5898 298.4849 253.7028 318.0409 C 248.1578 313.5729 246.7178 306.3849 242.1318 301.2549 C 233.0148 315.8429 230.3028 333.7079 228.2228 350.6179 C 227.9518 353.5279 228.7878 354.8469 231.8428 355.3419 C 248.8628 358.3939 265.4788 364.1159 280.3418 372.9629 C 275.1558 374.9599 268.5528 375.7949 265.2678 380.7039 C 293.3258 383.3189 311.3408 389.1189 331.6998 415.9769 L 337.6688 423.0429 C 337.6668 423.0399 337.6648 423.0369 337.6638 423.0339 C 314.8388 376.8719 282.9158 376.9339 306.0478 374.9879"/>
  <path fill="#fcfcfa" d="M 549.9897 301.2815 C 545.2207 306.3425 543.3567 313.6405 538.0367 318.1245 C 542.0627 299.1415 535.4637 276.8415 519.2687 266.9575 C 518.3867 266.4075 517.7067 264.7885 516.4737 266.3285 C 516.7717 266.8765 517.0597 267.4235 517.3457 267.9715 C 528.8297 289.8845 531.5627 312.0925 518.1867 334.6875 C 528.2997 336.3425 537.2407 329.4705 545.3927 324.4005 C 546.8477 357.0545 504.1577 358.9205 485.5177 375.0825 C 488.5017 375.3245 491.4457 375.8055 494.3757 376.4145 C 479.8797 387.4585 466.8337 399.5265 458.4317 415.9965 C 459.0657 416.3275 459.7007 416.6595 460.3357 416.9905 C 460.3347 416.9915 460.3347 416.9925 460.3337 416.9935 C 460.3347 416.9935 460.3357 416.9925 460.3357 416.9925 C 474.1047 391.3845 499.0287 382.8105 526.5197 380.3245 C 522.7577 375.3125 516.6467 375.3485 511.4737 372.9735 C 525.8507 363.9445 542.7697 358.6535 559.4857 355.4385 C 563.0317 354.8695 563.8797 353.4095 563.5477 350.0675 C 561.6417 333.2255 558.3767 316.1865 549.9897 301.2815"/>
  <path fill="#fbfbfc" d="M 570.861 144.0003 C 566.911 153.1423 556.578 155.3923 548.004 158.6483 C 551.632 160.6253 555.817 160.0863 559.336 161.4823 C 559.874 161.6333 560.274 161.8263 560.558 162.0643 C 561.057 162.3513 561.54 162.6883 561.999 163.1003 C 554.786 182.9873 540.24 199.4593 522.575 211.0243 C 518.614 213.4203 515.385 213.6213 511.349 211.3723 C 500.86 205.8223 489.408 201.3963 478.033 197.9323 C 494.96 206.5823 511.698 215.5433 525.528 228.9553 C 527.69 231.0523 529.147 229.8333 530.75 228.6303 C 571.744 197.8813 589.939 155.0153 581.15 103.7343 L 578.971 115.2873 C 577.435 125.2033 574.075 134.5823 570.861 144.0003"/>
  <path fill="#fbfbfb" d="M 266.389 209.6631 C 253.382 200.9151 230.902 177.5041 229.854 162.0901 C 233.77 159.8591 238.764 160.7261 243.734 158.8721 C 235.034 155.0721 223.903 153.4691 220.103 144.0221 C 215.793 132.1501 213.376 119.5221 210.82 107.4171 C 210.776 107.1901 210.745 106.9651 210.729 106.7381 C 201.909 157.9011 220.223 197.9851 261.272 228.8041 C 262.891 230.0201 264.249 230.8281 266.087 229.0661 C 279.362 216.3381 295.22 207.5421 311.316 199.1151 C 300.785 201.1861 290.979 205.3521 281.616 210.5861 C 275.862 213.9201 271.589 213.1811 266.389 209.6631"/>
  <path fill="#aaa8ab" d="M 395.9755 368.9089 C 401.6005 360.8539 405.4455 351.7279 414.7735 346.9539 L 414.7735 346.9529 C 413.0555 341.2949 417.9905 338.9289 420.4725 335.3229 C 421.7555 333.4579 425.6385 332.9489 424.0235 329.5879 C 422.6195 326.6639 419.7905 325.9149 416.7135 326.3929 C 414.2845 326.7709 412.4195 326.1759 414.6625 323.7869 C 418.5895 319.6039 416.6345 318.3689 412.5165 316.2709 C 406.1115 313.0099 403.0815 304.3849 406.5345 301.4349 C 402.9155 294.7999 400.3065 287.4919 395.9635 281.3199 C 391.3935 286.3409 390.0875 294.4669 386.2135 300.0999 C 386.2365 300.1339 386.2515 300.1679 386.2775 300.2009 C 388.3055 307.1709 385.2675 312.4719 379.7755 315.9189 C 368.0505 321.2619 384.0515 326.3969 375.7995 326.5119 C 372.2665 325.7919 368.9655 326.5869 367.6405 329.9299 C 366.3085 333.2889 370.7715 333.7249 371.9325 335.9809 C 373.7985 339.6019 379.6355 341.3459 377.1715 347.0189 C 386.4785 351.7639 390.4815 360.7669 395.9755 368.9089"/>
  <path fill="#f8f9fa" d="M 378.8996 496.1358 C 373.7396 492.1838 368.2966 487.2938 369.0436 480.0138 C 369.1866 480.2898 369.3466 480.5488 369.5046 480.8098 C 369.3576 480.5408 369.2056 480.2748 369.0436 480.0138 C 364.9676 474.6258 361.7066 495.2798 372.8396 499.3988 C 388.0146 506.7998 433.3616 507.9298 425.5636 481.3998 C 424.7696 478.0178 421.8756 478.7178 421.6676 481.7638 C 422.8236 489.6268 416.6556 492.9028 411.8406 496.7488 C 410.3826 497.9128 408.5906 495.8108 407.6826 494.0898 L 407.6826 494.0888 C 401.7386 493.3398 390.9676 495.1218 383.2486 494.3118 C 382.0706 495.6968 380.4596 497.4958 378.8996 496.1358"/>
  <path fill="#65e72a" d="M 327.779 293.5532 C 320.131 293.6912 320.36 289.3002 322.253 283.9512 C 322.253 283.9492 322.252 283.9482 322.252 283.9472 C 317.7 281.4242 313.57 281.3722 313.948 283.7142 C 315.248 291.7762 315.563 300.4042 324.472 304.6932 C 334.197 309.7282 347.759 306.8402 353.18 297.1592 C 348.6 296.2042 344.446 294.3022 340.899 298.5332 C 335.816 303.1372 322.327 297.5072 327.779 293.5532"/>
  <path fill="#62e528" d="M 476.9262 282.3995 C 474.7592 281.3065 471.9792 281.9545 469.9352 283.8605 C 471.8352 289.3585 471.6752 293.6125 464.1672 293.4245 C 464.1672 293.4245 464.1672 293.4245 464.1662 293.4245 C 468.9092 298.2095 454.5512 303.9765 449.4952 297.0885 C 446.2132 294.0655 442.7292 296.4075 439.4432 296.8305 C 434.9112 299.2715 454.7842 310.8755 462.8642 306.3625 C 471.8432 303.6415 477.2722 297.7745 476.8502 287.8725 C 476.7692 285.9595 479.2502 283.5715 476.9262 282.3995"/>
  <path fill="#a7a8b3" d="M 363.9709 397.6433 C 358.7559 394.8233 353.6569 391.7883 348.5159 388.8323 C 354.0299 398.3793 362.0449 405.0323 372.1699 409.2263 C 375.1349 410.4533 378.4799 412.4403 379.7299 407.3583 C 381.5679 397.5393 372.0799 400.9993 367.9549 396.8923 C 367.2979 400.5443 365.2099 398.3133 363.9709 397.6433"/>
  <path fill="#a8a6b2" d="M 431.8598 395.6782 C 429.6108 396.5532 427.0188 401.6682 423.8438 396.6412 C 420.1558 401.3182 410.4618 397.1012 412.0548 407.1732 C 414.0798 419.1332 442.1338 395.0982 443.2568 388.6352 C 439.4888 391.0622 435.9528 394.0862 431.8598 395.6782"/>
  <path fill="#a7a9b0" d="M 369.5043 480.81 C 369.3463 480.549 369.1863 480.29 369.0433 480.014 C 368.2963 487.294 373.7403 492.184 378.8993 496.136 C 380.4593 497.496 382.0703 495.697 383.2483 494.312 C 383.2743 494.282 383.3013 494.25 383.3273 494.22 C 379.7303 488.734 372.9323 486.467 369.5043 480.81"/>
  <path fill="#f0f4e9" d="M 469.9351 283.8601 C 466.5691 283.9521 462.5591 282.8351 461.2801 287.4861 C 460.5821 290.0271 461.0741 292.4841 464.1621 293.4241 C 464.1641 293.4241 464.1651 293.4241 464.1681 293.4241 C 471.6751 293.6121 471.8351 289.3591 469.9351 283.8601"/>
  <path fill="#a9a8b1" d="M 411.8408 496.7484 C 416.6558 492.9034 422.8238 489.6274 421.6678 481.7634 C 417.0058 485.8724 412.3448 489.9804 407.6828 494.0894 C 408.5908 495.8104 410.3828 497.9124 411.8408 496.7484"/>
  <path fill="#ecf3e6" d="M 327.779 293.5532 C 334.483 288.9402 329.267 282.1352 322.254 283.9472 C 322.253 283.9482 322.253 283.9492 322.253 283.9512 C 320.36 289.3002 320.131 293.6912 327.779 293.5532"/>
  <path fill="#fcfcfa" d="M 458.4316 415.9961 C 456.8066 418.6631 454.9896 421.2031 453.8206 424.0021 C 453.1316 425.6501 452.6666 427.3881 452.5986 429.2951 C 455.7656 425.5771 457.9396 421.2201 460.3336 416.9941 C 460.3346 416.9931 460.3346 416.9921 460.3356 416.9911 C 459.7006 416.6591 459.0656 416.3281 458.4316 415.9961"/>
  <path fill="#a5a6ae" d="M 371.2083 436.0196 C 371.5063 436.2746 371.8543 436.4806 372.3153 436.5726 C 373.6863 436.5546 375.3513 437.0126 376.8823 436.1646 C 374.5923 436.4636 372.7903 437.0376 371.2083 436.0196"/>
  <path fill="#a5a6ae" d="M 366.06 429.2934 C 365.097 434.8004 366.371 443.0654 366.344 447.1524 C 367.632 443.0574 366.952 438.3714 369.197 433.9134 C 369.325 433.9884 369.439 434.0784 369.55 434.1714 C 368.636 432.6464 367.77 430.2294 366.885 426.4514 C 366.564 427.3804 366.293 428.3314 366.06 429.2934"/>
  <path fill="#a4a5b1" d="M 425.157 429.2168 L 424.653 426.2318 C 423.03 435.5808 420.489 436.5618 417.172 436.3088 C 419.514 437.5358 421.093 435.7238 422.652 433.7948 C 424.695 438.5578 424.296 443.3458 425.636 447.5598 C 425.793 443.4968 425.849 434.8828 425.157 429.2168"/>
  <path fill="#a4a5b1" d="M 427.9987 446.0245 L 427.9707 445.8595 C 427.5417 446.2315 427.0947 446.5835 426.6267 446.9125 C 426.9757 446.6855 427.4197 446.3975 427.9987 446.0245"/>
  <path fill="#fafbf9" d="M 356.7182 417.2859 C 355.4292 428.5779 356.2612 440.4949 366.1342 447.1519 L 366.3442 447.1519 C 366.3712 443.0649 365.0972 434.8009 366.0602 429.2929 C 366.2462 428.2299 366.5062 427.2589 366.8852 426.4519 C 367.7692 430.2299 368.6362 432.6459 369.5492 434.1709 C 370.0822 435.0599 370.6302 435.6479 371.2082 436.0199 C 372.7902 437.0379 374.5922 436.4629 376.8822 436.1649 C 379.6022 435.8109 383.0102 435.8469 387.5562 439.4039 C 392.9902 435.9739 398.8592 437.2759 404.7312 439.2649 C 409.5872 434.5039 413.7842 436.0499 417.1722 436.3089 C 420.4882 436.5619 423.0302 435.5809 424.6522 426.2319 C 424.8552 427.0669 425.0192 428.0889 425.1572 429.2169 C 425.8482 434.8829 425.7932 443.4969 425.6362 447.5599 C 425.9762 447.3559 426.3052 447.1389 426.6262 446.9129 C 427.0952 446.5839 427.5422 446.2319 427.9712 445.8599 C 435.5162 439.3059 436.9912 426.2909 434.7012 417.3139 C 408.6762 428.3429 382.7282 428.1399 356.7182 417.2859"/>
  <path fill="#aaa8ab" d="M 375.0374 236.9123 C 390.1734 247.6383 392.0894 263.9903 408.1004 244.6433 C 411.0264 242.6063 412.3304 238.5623 416.3964 237.9403 C 416.3764 242.1073 416.4724 246.2693 413.4214 249.7203 C 412.8504 250.3663 412.9234 251.5813 412.6994 252.5343 C 412.5934 252.7853 412.5024 253.0363 412.3994 253.2873 C 413.5234 253.1473 413.2314 250.8493 415.1714 251.6933 C 415.8314 262.2693 424.5774 279.8143 436.8484 267.6853 C 441.4404 262.7783 446.4234 258.2413 451.1204 253.4303 C 457.2514 247.1493 463.4774 241.0183 471.5294 237.1533 C 471.7234 237.0613 471.7474 236.6133 471.9804 235.9783 C 467.4884 234.5033 462.7294 234.3113 458.1694 232.9293 C 471.7864 228.4493 485.4954 228.1013 500.3984 232.0763 C 492.9474 217.9423 483.8604 208.2983 473.6284 196.6333 C 475.0934 197.0483 476.5624 197.4843 478.0334 197.9323 C 489.4084 201.3963 500.8604 205.8223 511.3484 211.3723 C 515.3844 213.6213 518.6144 213.4203 522.5754 211.0243 C 540.2394 199.4593 554.7864 182.9873 561.9984 163.1003 C 561.5404 162.6883 561.0574 162.3513 560.5574 162.0643 C 560.1614 161.8373 559.7524 161.6483 559.3364 161.4833 C 555.8174 160.0863 551.6324 160.6253 548.0044 158.6483 C 556.5784 155.3923 566.9114 153.1423 570.8614 144.0003 C 574.0754 134.5833 577.4344 125.2033 578.9704 115.2873 L 581.1504 103.7343 C 543.4104 129.2573 505.2834 157.2683 462.0374 172.0653 C 462.2834 169.4733 464.6584 167.9333 464.4194 164.9173 C 452.8034 172.1843 443.5234 181.5613 434.5254 191.2583 C 435.4924 186.5523 437.6224 182.3563 437.8554 177.5343 C 426.1084 175.0413 415.2794 173.4853 403.8374 170.1863 C 401.2634 185.5823 398.7644 200.5363 396.2654 215.4893 C 395.8084 215.4883 395.3514 215.4883 394.8944 215.4873 C 392.3994 200.4073 389.9044 185.3263 387.3144 169.6753 C 376.0964 174.1643 364.5634 175.1863 352.8364 177.5523 C 354.3474 182.4193 355.7044 186.7873 357.0614 191.1563 C 347.2494 181.8313 338.7864 171.9263 326.7974 165.1133 C 326.4514 168.1613 329.2444 169.6753 328.5844 172.5523 C 286.2494 155.3363 247.9754 131.3043 211.4604 104.1433 C 210.8234 105.1503 210.6744 105.9573 210.7284 106.7373 C 210.7444 106.9653 210.7754 107.1903 210.8204 107.4173 C 213.3764 119.5223 215.7934 132.1503 220.1034 144.0223 C 223.9024 153.4693 235.0334 155.0723 243.7344 158.8713 C 238.7644 160.7263 233.7694 159.8583 229.8534 162.0903 C 230.9024 177.5043 253.3814 200.9153 266.3894 209.6633 C 271.5894 213.1803 275.8614 213.9193 281.6154 210.5863 C 290.9794 205.3523 300.7854 201.1863 311.3164 199.1153 C 313.4384 198.6983 315.5884 198.3583 317.7714 198.1203 C 307.2474 208.3123 297.8154 218.4943 290.8834 232.0843 C 305.8164 228.4723 319.1744 227.4693 333.0954 233.0693 C 328.2624 234.3733 323.2364 234.2623 317.9114 236.8673 C 340.3474 242.5963 366.1454 301.5943 376.2734 251.4903 C 376.7114 251.4423 376.4034 248.5373 376.2354 245.3113 C 375.3404 242.6273 374.7454 239.8733 375.0374 236.9123"/>
  <path fill="#a8a9ae" d="M 364.8988 507.4723 C 363.5118 506.7473 362.3198 506.0393 360.7398 507.1293 C 364.8678 513.1993 369.3598 518.6713 376.0838 520.7743 C 377.9268 520.7713 377.5968 518.8653 379.4728 519.0863 C 390.8018 528.3633 402.6868 527.9643 414.0328 518.8773 C 415.5398 519.3703 415.5258 520.9313 416.8498 520.7953 C 425.0258 517.2413 430.1748 512.0673 431.5168 505.4803 C 411.1568 517.8803 386.1908 518.3083 364.8988 507.4723"/>
  <path fill="#fcfcfb" d="M 406.535 301.4353 L 406.535 301.4353 C 408.359 302.7933 410.183 304.1513 412.007 305.5093 C 413.579 303.0233 411.351 301.1433 410.776 299.1113 C 406.386 283.5983 406.201 268.3283 412.399 253.2873 C 412.503 253.0363 412.593 252.7853 412.7 252.5343 C 412.924 251.5813 412.85 250.3663 413.421 249.7203 C 416.472 246.2693 416.377 242.1073 416.397 237.9403 C 412.331 238.5623 411.026 242.6063 408.1 244.6433 C 392.09 263.9903 390.173 247.6383 375.037 236.9123 C 374.745 239.8733 375.341 242.6273 376.236 245.3113 C 376.824 247.0743 377.54 248.8073 378.222 250.5483 C 387.056 268.4003 384.529 286.8363 379.756 305.3863 C 382.61 304.3013 384.626 302.4093 386.214 300.1003 C 390.087 294.4673 391.393 286.3413 395.963 281.3193 C 400.307 287.4923 402.915 294.8003 406.535 301.4353"/>
</svg>
